<svg width="160" height="160" viewBox="0 0 160 160" xmlns="http://www.w3.org/2000/svg">
  <path
    d="M128.599 17.6375C112.418 12.4573 76.0852 21.1848 56.7392 61.0158C53.9729 66.7113 52.3018 71.2361 51.4534 74.7666C50.5945 78.3404 50.6503 80.6024 51.002 81.9401C51.1655 82.5619 51.9126 82.548 52.2305 81.9892C56.2041 75.0036 60.5389 68.3367 65.1478 62.5433C74.3648 50.9574 83.4016 43.904 90.9931 40.4272C94.7764 38.6945 98.365 37.7762 101.527 37.7676C104.645 37.7591 107.847 38.6631 109.967 41.1684C112.717 44.4184 112.898 48.2741 111.983 51.6694C111.105 54.9268 109.159 58.1059 107.044 60.8967C102.801 66.4957 96.9047 71.7598 93.6358 74.6782L93.6038 74.7067C89.174 78.6617 83.0261 82.8478 76.6716 86.1701C70.3873 89.4557 63.4732 92.1228 57.5574 92.6469C56.9741 92.6986 56.3853 92.7309 55.7953 92.7392C51.4941 100.97 47.6871 109.472 44.5409 117.336C41.244 125.577 38.7134 133.015 37.1251 138.565C36.3279 141.35 35.7884 143.59 35.5021 145.183C35.36 145.974 35.2971 146.515 35.2801 146.84C35.7523 148.686 34.8939 150.675 33.1199 151.562C31.0759 152.584 28.5905 151.756 27.5686 149.712C27.1897 148.954 27.0817 148.227 27.0394 147.811C26.9913 147.338 26.9934 146.873 27.0132 146.461C27.0529 145.636 27.1811 144.699 27.357 143.72C27.712 141.745 28.3328 139.21 29.1689 136.288C30.8471 130.424 33.4746 122.718 36.8573 114.263C39.8472 106.789 43.459 98.6504 47.5698 90.6284C45.333 89.1441 43.7514 86.9079 42.9984 84.044C42.1633 80.8674 42.3829 77.0943 43.4069 72.8332C44.4414 68.5287 46.3722 63.4188 49.2952 57.4009C70.1446 14.4745 110.409 3.12569 131.123 9.75677C133.299 10.4535 134.499 12.7825 133.802 14.9587C133.105 17.1349 130.776 18.3342 128.599 17.6375ZM61.4208 82.6519C61.1928 83.0339 61.5399 83.4929 61.9669 83.3683C65.3001 82.3953 69.0397 80.8227 72.8371 78.8373C78.6833 75.7807 84.2466 71.9676 88.0922 68.5343C91.4439 65.542 96.7539 60.7743 100.449 55.899C102.31 53.4434 103.521 51.265 103.992 49.516C104.426 47.9049 104.15 47.1053 103.649 46.5134C103.643 46.5066 103.552 46.3985 103.237 46.2814C102.907 46.1586 102.361 46.0402 101.549 46.0424C99.9039 46.0469 97.5008 46.5483 94.4392 47.9504C88.3408 50.7433 80.275 56.8203 71.6242 67.6945C68.0586 72.1766 64.6394 77.2607 61.4208 82.6519Z"
    fill="currentColor" />
</svg>